<?xml version="1.0" encoding="UTF-8" standalone="no"?>
<svg
   width="1200"
   height="529"
   viewBox="0 0 1050 400"
   version="1.1"
   id="svg2"
   sodipodi:docname="trace.svg"
   inkscape:version="1.2.2 (b0a84865, 2022-12-01)"
   xmlns:inkscape="http://www.inkscape.org/namespaces/inkscape"
   xmlns:sodipodi="http://sodipodi.sourceforge.net/DTD/sodipodi-0.dtd"
   xmlns:xlink="http://www.w3.org/1999/xlink"
   xmlns="http://www.w3.org/2000/svg"
   xmlns:svg="http://www.w3.org/2000/svg">
  <sodipodi:namedview
     id="namedview2"
     pagecolor="#ffffff"
     bordercolor="#000000"
     borderopacity="0.25"
     inkscape:showpageshadow="2"
     inkscape:pageopacity="0.0"
     inkscape:pagecheckerboard="0"
     inkscape:deskcolor="#d1d1d1"
     inkscape:zoom="0.57509697"
     inkscape:cx="488.61325"
     inkscape:cy="458.1836"
     inkscape:window-width="1440"
     inkscape:window-height="847"
     inkscape:window-x="0"
     inkscape:window-y="25"
     inkscape:window-maximized="0"
     inkscape:current-layer="layer1"
     showgrid="false" />
  <g
     inkscape:groupmode="layer"
     id="layer1"
     inkscape:label="Trace2"
     transform="translate(-44.264123,-450.80869)">
    <path
       style="display:inline;fill:#006767;stroke:#000000;stroke-width:8;stroke-dasharray:none;stroke-opacity:1;fill-opacity:1"
       d="m 277.02435,446.10252 c 0,0 -46.12629,-0.9634 -82.89268,4.84659 -34.49627,5.45125 -69.99708,41.56168 -104.246054,101.24957 -47.455603,82.70392 -45.732785,203.57215 30.204744,267.06805 67.59262,50.353 141.08775,46.78366 163.55864,46.41529 22.4709,-0.36838 93.93571,-7.73588 138.50912,-64.46568 l -4.00446,-284.80395 c 0,0 -18.46968,2.95515 -28.07392,-7.38788 -9.60423,-10.34302 -40.6325,-37.49236 -38.41694,-33.24543 5.17151,13.29817 42.11088,130.02658 8.86544,192.08473 0,0 -25.85755,84.96055 -118.94476,45.06603 -70.0248,-30.01063 -59.14483,-190.85728 35.44087,-266.82732 z"
       id="path3"
       sodipodi:nodetypes="cssssccsccsc" />
    <path
       style="display:inline;fill:#008585;stroke:#000000;stroke-width:8;stroke-dasharray:none;stroke-opacity:1;fill-opacity:1"
       d="m 421.10881,801.89038 -5.9103,-284.95557 30.72301,-6 37.24543,42.41695 -0.73878,-67.22966 60.58056,-19.94726 13.29818,369.3937 c 0,0 -26.80247,18.16045 -104.90781,-98.99751 0.73878,18.46968 0,40.63331 0,40.63331 z"
       id="path4"
       sodipodi:nodetypes="cccccccccc" />
    <path
       style="display:inline;fill:#00a4a4;stroke:#000000;stroke-width:8;stroke-dasharray:none;stroke-opacity:1;fill-opacity:1"
       d="m 625.75292,571.82144 c 0,0 -2.95515,-27.33513 -30.29028,-25.11877 -27.33514,2.21636 -26.37999,35.4618 -25.6412,101.21387 0.73879,65.75208 12.34303,84.96055 26.37999,85.69934 14.03696,0.73879 23.64119,-2.95515 31.02907,-28.07392 21.42483,0 39.89452,-0.73879 39.89452,-0.73879 0,0 -0.63265,68.62418 -51.71512,108.60175 -16.99211,13.29817 -52.7427,28.9115 -70.1848,21.20847 -12.39777,-5.47528 -33.76786,-95.6466 -32.29029,-182.82351 1.47758,-87.17691 16.03696,-164.92899 29.33514,-182.65989 13.29817,-17.73089 40.6333,-12.55938 40.6333,-12.55938 0,0 46.54361,9.60423 80.52783,113.77326 -19.94726,0.73879 -37.67816,1.47757 -37.67816,1.47757 z"
       id="path5"
       sodipodi:nodetypes="csssccssssccc" />
    <path
       style="fill:#005656;stroke:#000000;stroke-width:8;stroke-dasharray:none;stroke-opacity:1;fill-opacity:1"
       d="m 673.03531,577.73174 2.95515,118.20598 39.15574,-1.47757 0.73878,-22.90241 h -16.99211 l -1.47757,-96.04236 z"
       id="path6" />
    <path
       style="fill:#005656;stroke:#000000;stroke-width:8;stroke-dasharray:none;stroke-opacity:1;fill-opacity:1"
       d="m 774.24918,577.73174 2.95515,118.20598 39.15574,-1.47757 0.73878,-22.90241 h -16.99211 l -1.47757,-96.04236 z"
       id="path7" />
    <path
       style="fill:#005656;stroke:#000000;stroke-width:8;stroke-dasharray:none;stroke-opacity:1;fill-opacity:1"
       d="m 875.55275,576.47053 2.95515,118.20598 39.15574,-1.47757 0.73878,-22.90241 h -16.99211 l -1.47757,-96.04236 z"
       id="path8"
       inkscape:label="path8" />
    <path
       style="fill:#005656;stroke:#000000;stroke-width:8;stroke-dasharray:none;stroke-opacity:1;fill-opacity:1"
       d="m 723.27286,574.77659 2.95515,119.68356 h 39.89452 l 0.73878,-24.37999 h -17.73089 v -20.68604 l 12.55938,-2.21636 -0.73879,-22.90241 -14.77574,-1.47758 -0.73879,-17.7309 h 14.77575 l 0.73878,-28.07392 z"
       id="path9" />
    <path
       style="fill:#005656;stroke:#000000;stroke-width:8;stroke-dasharray:none;stroke-opacity:1;fill-opacity:1"
       d="m 825.00916,574.99295 2.95515,119.68356 h 39.89452 l 0.73878,-24.37999 h -17.73089 v -20.68604 l 12.55938,-2.21636 -0.73879,-22.90241 -14.77574,-1.47758 -0.73879,-17.7309 h 14.77575 l 0.73878,-28.07392 z"
       id="path10" />
    <path
       style="fill:#00b3b3;stroke:#000000;stroke-width:7.22245;stroke-dasharray:none;stroke-opacity:1;fill-opacity:1"
       d="m 928.85027,594.54113 c -0.0528,30.32992 -0.55863,54.36368 0.59819,84.3967 0.54725,14.20765 26.31288,36.4355 34.35669,25.5667 7.70231,-10.40736 60.07355,0.35331 69.13105,-0.19649 11.1187,-0.67491 25.308,-22.7983 21.1397,-31.48338 -14.8392,5.66614 -80.60441,6.41532 -93.52129,5.6511 -5.12746,-6.97618 -7.21566,-21.55279 -0.5982,-28.25981 22.54792,0.18074 94.74779,0.74367 94.74779,0.74367 l 0.2078,-28.25981 c 0,0 -76.75263,0.0412 -93.75919,-0.74368 -6.28576,-6.33479 -6.31033,-20.46212 0,-26.77245 22.77616,0.25767 78.18149,-2.34259 93.31839,5.93012 4.9318,-10.47611 -10.5579,-32.41344 -22.1332,-32.70257 -8.8762,-0.22171 -50.57103,15.16981 -65.54188,-0.74369 -4.49554,-4.77861 -37.92264,13.53181 -37.94585,26.87359 z"
       id="path11"
       sodipodi:nodetypes="ssssccccccccsss" />
  </g>
</svg>
